<?xml version="1.0" standalone="no"?>
<!DOCTYPE svg PUBLIC "-//W3C//DTD SVG 20010904//EN"
 "http://www.w3.org/TR/2001/REC-SVG-20010904/DTD/svg10.dtd">
<svg version="1.0" xmlns="http://www.w3.org/2000/svg"
 width="1280.000000pt" height="964.000000pt" viewBox="0 0 1280.000000 964.000000"
 preserveAspectRatio="xMidYMid meet">
<metadata>
Created by potrace 1.15, written by Peter Selinger 2001-2017
</metadata>
<g transform="translate(0.000000,964.000000) scale(0.100000,-0.100000)"
fill="#000000" stroke="none">
<path d="M569 9618 c-38 -52 -4 -119 303 -588 91 -139 228 -286 474 -507 135
-120 208 -196 308 -317 72 -88 135 -166 139 -174 5 -7 -47 29 -115 81 -98 75
-153 108 -268 162 -243 113 -312 142 -395 163 -145 36 -384 140 -500 217 -27
19 -96 72 -151 119 -94 79 -105 86 -146 86 -40 0 -45 -3 -55 -31 -11 -27 -9
-37 11 -78 13 -25 36 -57 51 -71 15 -14 65 -80 112 -147 75 -109 105 -141 262
-281 398 -359 484 -435 652 -578 96 -82 215 -195 264 -249 49 -55 100 -112
114 -127 l24 -28 -79 -36 c-43 -20 -119 -51 -169 -69 l-90 -33 -58 45 c-146
113 -200 189 -261 372 l-22 63 -95 -84 c-165 -148 -195 -189 -243 -334 -31
-96 -51 -116 -160 -170 -94 -46 -223 -162 -287 -257 -63 -95 -168 -315 -179
-376 -15 -84 -12 -311 6 -399 28 -141 163 -402 245 -476 28 -25 54 -46 58 -46
3 0 5 20 3 45 -3 35 -1 45 11 45 22 0 45 -41 76 -135 46 -137 158 -263 361
-406 148 -104 225 -140 386 -178 113 -27 247 -74 388 -136 38 -16 104 -59 280
-180 43 -30 134 -82 201 -116 117 -59 126 -62 225 -70 67 -6 114 -15 134 -27
17 -10 57 -56 88 -102 74 -109 106 -135 198 -165 249 -80 278 -97 300 -173 52
-182 92 -350 114 -472 17 -95 40 -183 67 -255 56 -148 59 -204 24 -405 -30
-171 -56 -284 -120 -527 -64 -238 -84 -345 -100 -536 -34 -386 -52 -442 -190
-562 -155 -135 -367 -396 -343 -421 4 -4 36 -12 70 -18 60 -11 63 -13 65 -41
0 -17 2 -36 2 -42 1 -18 50 -16 120 3 84 24 107 15 115 -40 7 -44 8 -45 57
-55 77 -17 91 -14 149 29 29 22 58 40 63 40 6 0 8 -35 5 -86 -4 -67 -1 -87 9
-91 8 -3 64 4 126 16 62 11 155 26 207 32 184 21 412 69 462 96 58 32 194 155
204 186 4 12 8 171 8 352 1 377 1 377 83 565 77 175 93 225 93 292 0 70 14
107 73 190 47 67 102 181 144 301 21 59 26 97 30 210 4 90 9 137 17 138 27 3
44 -6 94 -49 76 -66 102 -82 140 -82 52 0 104 33 170 108 34 38 82 80 106 93
l45 24 85 -18 c110 -22 108 -23 208 18 103 42 165 48 223 20 59 -28 177 -150
208 -215 l26 -55 -10 -155 c-18 -303 -30 -346 -170 -635 -115 -239 -134 -293
-146 -425 -8 -79 -18 -114 -57 -206 -68 -161 -90 -191 -204 -278 -145 -109
-216 -202 -231 -301 -5 -33 -15 -85 -22 -116 -17 -75 -3 -111 55 -139 23 -11
50 -20 59 -20 22 0 22 -27 -2 -81 -26 -57 -15 -79 39 -79 22 0 60 10 85 22 49
24 63 21 45 -12 -22 -42 5 -85 67 -104 16 -5 32 3 71 37 51 45 175 96 207 83
20 -7 19 -42 -5 -95 -25 -54 -25 -66 0 -91 16 -16 33 -20 93 -20 59 0 83 5
135 30 43 20 91 33 145 39 116 14 162 25 247 64 41 19 99 42 128 51 65 22 98
49 147 121 l38 55 8 138 c9 173 61 388 139 572 64 151 59 135 121 410 46 211
54 234 118 370 124 261 173 450 191 735 11 167 11 173 -18 345 -16 96 -29 176
-27 178 1 1 41 -22 90 -52 105 -67 160 -88 334 -132 73 -18 135 -35 138 -37 2
-2 13 -51 25 -108 34 -170 28 -347 -23 -605 -19 -96 -140 -239 -337 -397 -118
-94 -162 -147 -122 -147 28 0 25 -17 -15 -106 l-35 -77 22 -24 c26 -28 47 -29
98 -3 73 37 105 22 70 -34 -25 -41 -31 -125 -11 -149 21 -26 40 -21 113 28 90
60 98 59 91 -8 -3 -30 -1 -62 5 -73 11 -20 12 -20 197 -1 102 11 188 17 191
14 7 -6 -30 -79 -68 -135 -62 -90 -87 -185 -53 -198 8 -3 30 3 48 15 70 43 96
10 51 -67 -51 -90 -55 -102 -61 -192 l-6 -90 25 0 c14 0 58 13 96 30 139 59
181 32 142 -91 -27 -87 -26 -113 6 -138 35 -27 53 -26 154 9 145 52 180 38
180 -68 0 -72 11 -78 55 -32 28 29 32 30 115 30 80 0 89 2 137 33 51 33 55 34
255 51 201 19 204 19 276 57 41 22 82 39 92 39 36 0 131 42 145 63 7 12 36
117 64 232 58 245 63 260 102 300 25 26 34 53 65 190 19 88 38 189 41 225 3
36 -2 173 -12 305 -10 140 -15 275 -11 325 9 128 39 370 46 370 5 0 82 -134
272 -473 68 -120 125 -194 248 -321 119 -123 199 -187 385 -308 232 -150 311
-188 493 -235 92 -23 126 -27 242 -27 119 1 145 4 220 29 121 39 306 120 366
159 73 49 293 227 335 272 48 51 369 563 397 634 43 106 64 268 42 326 -10 24
-14 26 -51 21 -63 -8 -113 -51 -239 -202 -134 -161 -178 -203 -252 -242 -51
-26 -59 -27 -208 -28 l-155 0 -127 62 c-111 54 -137 72 -213 145 -165 157
-266 317 -319 503 -35 119 -117 489 -155 692 -17 89 -58 296 -91 459 -56 277
-120 638 -170 969 -60 396 -124 645 -271 1054 -172 476 -416 1004 -571 1235
-305 452 -966 1112 -1413 1411 -108 72 -315 177 -435 220 -495 177 -1037 160
-1555 -48 -549 -221 -841 -363 -1344 -656 -172 -100 -317 -179 -320 -174 -4 4
-13 33 -20 63 -28 116 -55 157 -205 305 -148 147 -322 287 -409 330 -108 52
-204 52 -293 0 -44 -26 -111 -99 -188 -205 -59 -81 -346 -339 -552 -495 l-150
-115 -132 0 -132 0 -54 113 c-30 61 -74 135 -98 162 -56 66 -422 420 -518 503
-41 35 -138 102 -215 149 -77 47 -221 139 -320 205 -126 84 -240 149 -380 218
-126 61 -231 121 -285 160 -104 77 -350 288 -350 301 0 15 -14 9 -31 -13z"/>
</g>
</svg>
